<svg width="342" height="400" viewBox="0 0 342 400" fill="none" xmlns="http://www.w3.org/2000/svg">
<g clip-path="url(#clip0_36_786)">
<path opacity="0.2" fill-rule="evenodd" clip-rule="evenodd" d="M-20.7505 407.236L84.1723 407.407L108.873 400.797C135.769 393.6 154.476 369.212 154.476 341.347V280.996C154.476 275.898 150.347 271.765 145.254 271.765C144.443 271.765 143.635 271.872 142.852 272.084L-20.6772 316.229L-20.7505 407.236Z" fill="url(#paint0_linear_36_786)"/>
<path fill-rule="evenodd" clip-rule="evenodd" d="M243.627 361.582V313.643C243.627 311.094 241.562 309.028 239.016 309.028C238.629 309.028 238.243 309.076 237.869 309.173L107.634 342.652C94.0419 346.146 84.5393 358.408 84.5393 372.454V421.684C84.5393 424.233 86.6038 426.3 89.1505 426.3C89.5518 426.3 89.9513 426.247 90.339 426.144L220.808 391.312C234.265 387.719 243.627 375.521 243.627 361.582Z" stroke="url(#paint1_linear_36_786)" stroke-width="2"/>
<path fill-rule="evenodd" clip-rule="evenodd" d="M97.1474 -1.8237L97.1335 59.0489C97.1311 69.2449 105.387 77.5123 115.574 77.5146C117.335 77.515 119.086 77.2632 120.775 76.7668L252.186 38.1452C267.875 33.5343 278.659 19.1367 278.682 2.77086L278.689 -1.82369L97.1474 -1.8237Z" stroke="url(#paint2_linear_36_786)" stroke-width="2"/>
</g>
<defs>
<linearGradient id="paint0_linear_36_786" x1="154.476" y1="297.315" x2="-14.5964" y2="349.714" gradientUnits="userSpaceOnUse">
<stop stop-color="#F8F8FA" stop-opacity="0.6"/>
<stop offset="1" stop-color="white" stop-opacity="0.2"/>
</linearGradient>
<linearGradient id="paint1_linear_36_786" x1="84.5393" y1="400.966" x2="216.569" y2="299.242" gradientUnits="userSpaceOnUse">
<stop stop-color="white" stop-opacity="0.2"/>
<stop offset="1" stop-color="#F8F8FA" stop-opacity="0.6"/>
</linearGradient>
<linearGradient id="paint2_linear_36_786" x1="275.282" y1="-14.5501" x2="129.548" y2="96.084" gradientUnits="userSpaceOnUse">
<stop stop-color="white" stop-opacity="0.2"/>
<stop offset="1" stop-color="#F8F8FA" stop-opacity="0.6"/>
</linearGradient>
<clipPath id="clip0_36_786">
<rect width="342" height="400" fill="white"/>
</clipPath>
</defs>
</svg>
