<svg width="180" height="71" viewBox="0 0 180 71" fill="none" xmlns="http://www.w3.org/2000/svg">
<path d="M117.333 5.98584H62.6667C61.1939 5.98584 60 7.17975 60 8.65251V63.3192C60 64.7919 61.1939 65.9858 62.6667 65.9858H117.333C118.806 65.9858 120 64.7919 120 63.3192V8.65251C120 7.17975 118.806 5.98584 117.333 5.98584Z" fill="#0B0B0B"/>
<path fill-rule="evenodd" clip-rule="evenodd" d="M92.6675 28.0929V44.0403C92.6675 44.0669 92.6408 44.0936 92.6141 44.0936H77.3867C77.36 44.0936 77.3333 44.0669 77.3333 44.0403V28.0929C77.3333 28.0662 77.36 28.0396 77.3867 28.0396H92.6141C92.6675 28.0396 92.6675 28.0396 92.6675 28.0929Z" stroke="white" stroke-width="3.46667" stroke-linecap="round"/>
<path d="M101.148 35.3996C101.441 35.773 101.441 36.3063 101.148 36.7066L96.1075 44.3335C96.0275 44.4668 96.0541 44.6002 96.0808 44.6535C96.1341 44.7868 96.2408 44.8668 96.3741 44.9202L98.9077 45.7735C99.1744 45.8802 99.4677 45.7735 99.6277 45.5602L105.708 36.1996C105.785 36.0972 105.788 35.97 105.717 35.8655C105.711 35.857 105.705 35.8495 105.697 35.8423C105.687 35.8316 105.677 35.8202 105.669 35.8076L99.6277 26.4926C99.4944 26.306 99.1744 26.1993 98.9077 26.2793L96.4275 27.1593C96.2675 27.2127 96.1341 27.346 96.1075 27.4794C96.1069 27.4824 96.1061 27.4855 96.1053 27.4885C96.0624 27.6684 96.2117 27.8242 96.3128 27.9792L101.148 35.3996Z" fill="white"/>
</svg>
