<svg width="180" height="71" viewBox="0 0 180 71" fill="none" xmlns="http://www.w3.org/2000/svg">
<path d="M15.0174 50.3811C23.3113 50.3811 30.0348 43.6654 30.0348 35.3811C30.0348 27.0968 23.3113 20.3811 15.0174 20.3811C6.72351 20.3811 0 27.0968 0 35.3811C0 43.6654 6.72351 50.3811 15.0174 50.3811Z" fill="url(#paint0_linear_610_6934)"/>
<path d="M10.6398 30.1311V41.3811H20.0257L10.6398 30.1311Z" fill="url(#paint1_linear_610_6934)"/>
<path d="M1.25397 41.3811H10.6398V30.1311L1.25397 41.3811Z" fill="white"/>
<path d="M6.00696 47.3811C8.51486 49.2636 11.6385 50.3811 15.0174 50.3811C18.3963 50.3811 21.5199 49.2636 24.0278 47.3811H6.00696Z" fill="#FF2D55"/>
<path d="M3.00348 44.3811C3.85947 45.5136 4.87314 46.5261 6.00696 47.3811H24.0278C25.1616 46.5261 26.1753 45.5136 27.0313 44.3811H3.00348Z" fill="#FC9965"/>
<path d="M20.1458 41.3811H1.25397C1.71951 42.4536 2.31269 43.4586 3.00349 44.3811H20.1533V41.3811H20.1458Z" fill="#FFBC5B"/>
<path d="M20.1459 36.1311V44.3811H27.0313L20.1459 36.1311Z" fill="url(#paint2_linear_610_6934)"/>
<path d="M13.2679 44.3811H20.1458V36.1311L13.2679 44.3811Z" fill="white"/>
<path d="M20.1458 33.8811C22.2193 33.8811 23.9002 32.2022 23.9002 30.1311C23.9002 28.06 22.2193 26.3811 20.1458 26.3811C18.0724 26.3811 16.3915 28.06 16.3915 30.1311C16.3915 32.2022 18.0724 33.8811 20.1458 33.8811Z" fill="#FFC95B"/>
<path d="M10.6398 27.8811C11.6765 27.8811 12.517 27.0416 12.517 26.0061C12.517 24.9706 11.6765 24.1311 10.6398 24.1311C9.60307 24.1311 8.76263 24.9706 8.76263 26.0061C8.76263 27.0416 9.60307 27.8811 10.6398 27.8811Z" fill="#FFC95B"/>
<path d="M40.4635 27.3903H46.5491C51.4609 27.3903 54.367 30.3478 54.367 35.5262C54.367 40.7047 51.4723 43.7415 46.5491 43.7415H40.4635V27.3903ZM43.4037 29.8605V41.2712H46.2414C49.5464 41.2712 51.3698 39.2656 51.3698 35.5376C51.3698 31.8775 49.5236 29.8605 46.2414 29.8605H43.4037ZM61.786 33.3846C60.1221 33.3846 58.9141 34.5857 58.7888 36.3534H64.6921C64.6351 34.5631 63.4727 33.3846 61.786 33.3846ZM64.7035 40.0588H67.3702C67.0055 42.3477 64.7946 43.9228 61.8886 43.9228C58.2076 43.9228 55.9283 41.4979 55.9283 37.5999C55.9283 33.7019 58.219 31.1863 61.786 31.1863C65.2733 31.1863 67.4842 33.5546 67.4842 37.3053V38.2344H58.766V38.4044C58.766 40.3987 60.0424 41.7245 61.9456 41.7245C63.3131 41.7245 64.373 41.0786 64.7035 40.0588ZM80.2936 35.7415H77.6155C77.4104 34.4384 76.4303 33.4866 74.8348 33.4866C72.9658 33.4866 71.7464 35.0503 71.7464 37.5432C71.7464 40.1154 72.9772 41.6225 74.8462 41.6225C76.3619 41.6225 77.3648 40.8406 77.6269 39.4355H80.305C80.0657 42.1437 77.9346 43.9228 74.8234 43.9228C71.2108 43.9228 68.8631 41.4979 68.8631 37.5432C68.8631 33.6679 71.1994 31.1863 74.8006 31.1863C78.0599 31.1863 80.0999 33.192 80.2936 35.7415ZM87.3935 33.3846C85.7297 33.3846 84.5217 34.5857 84.3963 36.3534H90.2996C90.2426 34.5631 89.0802 33.3846 87.3935 33.3846ZM90.311 40.0588H92.9777C92.613 42.3477 90.4022 43.9228 87.4961 43.9228C83.8151 43.9228 81.5358 41.4979 81.5358 37.5999C81.5358 33.7019 83.8265 31.1863 87.3935 31.1863C90.8808 31.1863 93.0917 33.5546 93.0917 37.3053V38.2344H84.3735V38.4044C84.3735 40.3987 85.6499 41.7245 87.5531 41.7245C88.9206 41.7245 89.9805 41.0786 90.311 40.0588ZM94.9949 43.7415V31.3563H97.7186V33.5092H97.7756C98.5163 32.0022 99.7699 31.209 101.685 31.209C104.442 31.209 106.015 32.9427 106.015 35.8095V43.7415H103.177V36.3647C103.177 34.5971 102.334 33.5999 100.625 33.5999C98.881 33.5999 97.8326 34.8237 97.8326 36.6367V43.7415H94.9949ZM109.172 28.5914H112.01V31.3563H114.369V33.5432H112.01V40.0701C112.01 41.0899 112.488 41.5772 113.514 41.5772C113.787 41.5772 114.175 41.5432 114.357 41.5205V43.6848C114.05 43.7528 113.468 43.7981 112.864 43.7981C110.22 43.7981 109.172 42.8463 109.172 40.4554V33.5432H107.474V31.3563H109.172V28.5914ZM116.374 43.7415V31.3563H119.098V33.5092H119.155C119.554 32.0588 120.671 31.2203 122.141 31.2203C122.517 31.2203 122.836 31.2656 123.053 31.3336V33.8945C122.813 33.8039 122.369 33.7359 121.879 33.7359C120.215 33.7359 119.212 34.8124 119.212 36.5574V43.7415H116.374ZM128.808 41.7132C130.529 41.7132 131.839 40.648 131.839 39.1409V38.2004L128.99 38.3817C127.44 38.4837 126.62 39.0729 126.62 40.0814C126.62 41.0786 127.486 41.7132 128.808 41.7132ZM127.976 43.8774C125.526 43.8774 123.771 42.393 123.771 40.1947C123.771 37.9851 125.469 36.7274 128.603 36.5347L131.839 36.3421V35.4356C131.839 34.1211 130.95 33.4073 129.423 33.4073C128.135 33.4073 127.212 34.0758 127.019 35.073H124.397C124.466 32.8067 126.585 31.1863 129.514 31.1863C132.626 31.1863 134.643 32.7954 134.643 35.2543V43.7415H131.919V41.7471H131.851C131.167 43.0729 129.628 43.8774 127.976 43.8774ZM137.116 43.7415V26.6311H139.953V43.7415H137.116ZM146.973 41.7132C148.694 41.7132 150.005 40.648 150.005 39.1409V38.2004L147.156 38.3817C145.606 38.4837 144.785 39.0729 144.785 40.0814C144.785 41.0786 145.652 41.7132 146.973 41.7132ZM146.142 43.8774C143.691 43.8774 141.936 42.393 141.936 40.1947C141.936 37.9851 143.634 36.7274 146.768 36.5347L150.005 36.3421V35.4356C150.005 34.1211 149.116 33.4073 147.589 33.4073C146.301 33.4073 145.378 34.0758 145.184 35.073H142.563C142.631 32.8067 144.751 31.1863 147.68 31.1863C150.791 31.1863 152.808 32.7954 152.808 35.2543V43.7415H150.085V41.7471H150.016C149.333 43.0729 147.794 43.8774 146.142 43.8774ZM155.19 43.7415V31.3563H157.914V33.5092H157.971C158.712 32.0022 159.965 31.209 161.88 31.209C164.638 31.209 166.21 32.9427 166.21 35.8095V43.7415H163.373V36.3647C163.373 34.5971 162.529 33.5999 160.82 33.5999C159.076 33.5999 158.028 34.8237 158.028 36.6367V43.7415H155.19ZM173.231 43.8774C170.119 43.8774 168.045 41.3959 168.045 37.5432C168.045 33.7019 170.131 31.2203 173.219 31.2203C175.02 31.2203 176.422 32.0702 177.094 33.4413H177.162V26.6311H180V43.7415H177.219V41.6338H177.162C176.49 43.0163 175.054 43.8774 173.231 43.8774ZM174.063 33.5659C172.182 33.5659 170.951 35.1296 170.951 37.5545C170.951 39.9908 172.182 41.5319 174.063 41.5319C175.943 41.5319 177.174 39.9568 177.174 37.5545C177.174 35.1636 175.932 33.5659 174.063 33.5659Z" fill="#16141A"/>
<defs>
<linearGradient id="paint0_linear_610_6934" x1="25.6363" y1="24.799" x2="4.42303" y2="45.9877" gradientUnits="userSpaceOnUse">
<stop stop-color="#FF2D55"/>
<stop offset="1" stop-color="#FFBC5B"/>
</linearGradient>
<linearGradient id="paint1_linear_610_6934" x1="15.3296" y1="30.1311" x2="15.3296" y2="41.3811" gradientUnits="userSpaceOnUse">
<stop stop-color="#A524B3"/>
<stop offset="1" stop-color="#FF2D55"/>
</linearGradient>
<linearGradient id="paint2_linear_610_6934" x1="23.5863" y1="36.1311" x2="23.5863" y2="44.3811" gradientUnits="userSpaceOnUse">
<stop stop-color="#A524B3"/>
<stop offset="1" stop-color="#FF2D55"/>
</linearGradient>
</defs>
</svg>
