<svg width="180" height="74" viewBox="0 0 180 74" fill="none" xmlns="http://www.w3.org/2000/svg">
<g clip-path="url(#clip0_610_6954)">
<path d="M101.599 38.4304V43.9456C100.178 45.0925 98.0688 45.8978 96.1433 45.8978C91.9943 45.8978 88.7622 42.579 88.7622 38.3084C88.7622 34.0379 92.0401 30.7678 96.3037 30.7678C98.3209 30.7678 100.315 31.5731 101.713 32.8665L100.361 34.7211C99.2837 33.6474 97.7708 33.0129 96.3037 33.0129C93.4384 33.0129 91.192 35.3312 91.192 38.3084C91.192 41.31 93.4613 43.6283 96.3266 43.6283C97.3811 43.6283 98.5501 43.2379 99.5587 42.6034V38.4304H101.599Z" fill="#00A6C4"/>
<path d="M115.719 45.7758L108.223 35.0384V45.7758H105.862V30.8167H108.201L115.742 41.5785V30.8167H118.08V45.7758H115.719Z" fill="#00A6C4"/>
<path d="M136.395 38.284C136.395 42.5546 133.14 45.8734 128.946 45.8734C124.751 45.8734 121.496 42.5546 121.496 38.284C121.496 33.989 124.751 30.7434 128.946 30.7434C133.163 30.7434 136.395 34.0134 136.395 38.284ZM123.903 38.284C123.903 41.2612 126.218 43.6039 128.968 43.6039C131.719 43.6039 133.966 41.2612 133.966 38.284C133.966 35.3068 131.719 33.0129 128.968 33.0129C126.195 33.0129 123.903 35.3312 123.903 38.284Z" fill="#00A6C4"/>
<path d="M149.393 32.232L148.407 34.4527C146.871 33.4765 145.358 33.0617 144.281 33.0617C142.905 33.0617 141.989 33.623 141.989 34.6235C141.989 37.8935 149.576 36.1365 149.553 41.5296C149.553 44.214 147.352 45.849 144.258 45.849C142.057 45.849 139.971 44.8973 138.504 43.4819L139.536 41.31C140.98 42.7254 142.791 43.4819 144.304 43.4819C145.954 43.4819 146.94 42.823 146.94 41.676C146.94 38.3328 139.352 40.2118 139.352 34.8675C139.352 32.3052 141.415 30.6946 144.464 30.6946C146.298 30.6946 148.086 31.3291 149.393 32.232Z" fill="#00A6C4"/>
<path d="M153.244 45.7758V30.8167H155.605V45.7758H153.244Z" fill="#00A6C4"/>
<path d="M169.748 32.232L168.762 34.4527C167.226 33.4765 165.713 33.0617 164.636 33.0617C163.261 33.0617 162.344 33.623 162.344 34.6235C162.344 37.8935 169.931 36.1365 169.908 41.5296C169.908 44.214 167.708 45.849 164.613 45.849C162.413 45.849 160.327 44.8973 158.86 43.4819L159.891 41.31C161.335 42.7254 163.146 43.4819 164.659 43.4819C166.309 43.4819 167.295 42.823 167.295 41.676C167.295 38.3328 159.708 40.2118 159.708 34.8675C159.708 32.3052 161.771 30.6946 164.819 30.6946C166.653 30.6946 168.441 31.3291 169.748 32.232Z" fill="#00A6C4"/>
<path d="M56.0057 30.0356L54.9971 31.1094C55.7994 32.4516 56.0516 34.1354 55.5014 35.746C54.5845 38.4792 51.7421 39.9189 49.1519 38.9428C48.7851 38.7964 48.4413 38.6256 48.1433 38.4059L44.9112 41.8468L42.0917 38.8208C40.7851 39.7481 39.1117 40.0166 37.5301 39.4309C34.8711 38.4059 33.4957 35.3067 34.4585 32.5004C34.596 32.0611 34.8023 31.6706 35.0315 31.3046L33.8166 30.0112L33.5874 30.4261C32.3266 32.6224 31.6389 35.1603 31.6389 37.7715C31.616 45.5561 37.5759 51.9253 44.8883 51.9253H44.9112C52.2235 51.9253 58.1605 45.6049 58.1834 37.8203C58.1834 35.2335 57.5186 32.6956 56.2579 30.4749L56.0057 30.0356Z" fill="#00A6C4"/>
<path d="M36.5215 32.8909C36.1776 33.3789 35.9713 33.989 35.9713 34.6479C35.9713 36.2341 37.1862 37.5275 38.6762 37.5275C39.2951 37.5275 39.8682 37.3079 40.3266 36.9174L36.5215 32.8909Z" fill="#00A6C4"/>
<path d="M49.7937 36.6733C50.2292 36.9905 50.7335 37.1613 51.3066 37.1613C52.7966 37.1613 54.0115 35.868 54.0115 34.2818C54.0115 33.6961 53.851 33.1348 53.553 32.6711L49.7937 36.6733Z" fill="#00A6C4"/>
<path d="M44.957 39.6994L34 27.9858L34.4355 27.4978C37.1404 24.4474 40.8309 22.7391 44.7966 22.7391H44.8195C48.8309 22.7391 52.6819 24.5694 55.3639 27.7418L55.7765 28.2299L44.957 39.6994ZM35.788 27.9858L44.957 37.7715L54.0115 28.1811C51.5817 25.5943 48.2808 24.1057 44.8424 24.1057H44.8195C41.404 24.1057 38.2178 25.4723 35.788 27.9858Z" fill="#00A6C4"/>
<path d="M32.8768 47.24L31.5931 47.1424C26.1375 46.7764 18.6189 45.3366 13.7593 40.6756C10.7564 37.8204 10.1834 35.1116 10.1605 34.9896L10 34.1599H29.851L29.7364 34.9408C29.6447 35.6485 29.5989 36.3806 29.5989 37.0883C29.5989 40.3095 30.4699 43.4331 32.1433 46.0931L32.8768 47.24Z" fill="#00A6C4"/>
<path d="M56.8997 47.24L57.6103 46.0931C59.2837 43.4331 60.1547 40.3339 60.1547 37.1371C60.1547 36.405 60.1089 35.6485 60.0172 34.9408L59.9255 34.1599H79.7765L79.616 34.9896C79.5931 35.1116 79.0201 37.8204 76.0401 40.6756C71.1805 45.3366 63.639 46.7764 58.1834 47.1424L56.8997 47.24Z" fill="#00A6C4"/>
</g>
<defs>
<clipPath id="clip0_610_6954">
<rect width="180" height="73.2097" fill="white" transform="translate(0 0.776245)"/>
</clipPath>
</defs>
</svg>
