<svg width="180" height="71" viewBox="0 0 180 71" fill="none" xmlns="http://www.w3.org/2000/svg">
<path fill-rule="evenodd" clip-rule="evenodd" d="M76.1805 61.9359V61.9049C76.1805 60.0259 74.7783 58.5291 72.9796 58.5291C71.1349 58.5291 69.808 60.0417 69.808 61.8756V61.9049C69.808 63.785 71.2108 65.2819 73.0089 65.2819C74.8542 65.2819 76.1805 63.7698 76.1805 61.9359ZM69 61.9359V61.9049C69 59.7211 70.6924 57.8268 73.0089 57.8268C75.3124 57.8268 76.9885 59.6906 76.9885 61.8756V61.9049C76.9885 64.0899 75.2961 65.9858 72.9796 65.9858C70.6772 65.9858 69 64.1209 69 61.9359ZM78.736 61.9359V61.9049C78.736 59.7211 80.4692 57.8268 82.6887 57.8268C84.1477 57.8268 85.06 58.4981 85.7901 59.2629L85.258 59.8112C84.589 59.1253 83.8281 58.5291 82.673 58.5291C80.91 58.5291 79.5418 60.0107 79.5418 61.8756V61.9049C79.5418 63.785 80.9554 65.2819 82.7341 65.2819C83.8281 65.2819 84.6793 64.7178 85.3337 63.9834L85.8507 64.4422C85.06 65.3428 84.1169 65.9858 82.6887 65.9858C80.4535 65.9858 78.736 64.1209 78.736 61.9359ZM93.6573 61.5386C93.5507 59.9656 92.6538 58.5133 90.8746 58.5133C89.3378 58.5133 88.1526 59.8118 88.0152 61.5386H93.6573ZM87.2237 61.9218V61.8897C87.2237 59.6286 88.8066 57.8268 90.9044 57.8268C93.0795 57.8268 94.4633 59.5988 94.4633 61.9049C94.4633 62.043 94.4633 62.0892 94.4481 62.211H88.0152C88.1526 64.1519 89.5352 65.2825 91.0575 65.2825C92.2573 65.2825 93.0795 64.7482 93.7173 64.0606L94.2344 64.5194C93.4436 65.3749 92.5169 65.9858 91.0266 65.9858C88.9889 65.9858 87.2237 64.3503 87.2237 61.9218ZM101.98 62.8611V61.9668C101.322 61.7982 100.45 61.6142 99.3315 61.6142C97.6766 61.6142 96.7572 62.3524 96.7572 63.4454V63.4761C96.7572 64.6151 97.8291 65.2772 99.0253 65.2772C100.618 65.2772 101.98 64.2926 101.98 62.8611ZM95.9611 63.5215V63.4914C95.9611 61.8589 97.3545 60.9357 99.3779 60.9357C100.464 60.9357 101.215 61.0748 101.966 61.2758V60.9357C101.966 59.3492 101 58.5343 99.3926 58.5343C98.4416 58.5343 97.6613 58.7967 96.9415 59.1663L96.6651 58.5031C97.5234 58.1039 98.3665 57.8268 99.4389 57.8268C100.495 57.8268 101.337 58.1187 101.905 58.6888C102.426 59.2123 102.701 59.9357 102.701 60.9056V65.8007H101.966V64.4919C101.43 65.246 100.464 65.9858 98.979 65.9858C97.5234 65.9858 95.9611 65.1546 95.9611 63.5215ZM105.323 58.0108H106.066V59.4727C106.579 58.5484 107.442 57.8268 108.85 57.8268C110.802 57.8268 111.938 59.1809 111.938 61.059V65.8603H111.197V61.1975C111.197 59.5812 110.303 58.5183 108.745 58.5183C107.23 58.5183 106.066 59.689 106.066 61.3196V65.8603H105.323V58.0108ZM74.4921 27.0104C74.4921 28.2928 73.459 29.3331 72.1829 29.3331C70.9079 29.3331 69.8737 28.2928 69.8737 27.0104C69.8737 25.7279 70.9079 24.6888 72.1829 24.6888C73.459 24.6888 74.4921 25.7279 74.4921 27.0104ZM111.189 27.0104C111.189 28.2928 110.155 29.3331 108.881 29.3331C107.605 29.3331 106.571 28.2928 106.571 27.0104C106.571 25.7279 107.605 24.6888 108.881 24.6888C110.155 24.6888 111.189 25.7279 111.189 27.0104ZM92.8406 36.1738C92.8406 37.4561 91.8066 38.4963 90.5317 38.4963C89.2563 38.4963 88.2223 37.4561 88.2223 36.1738C88.2223 34.8916 89.2563 33.8519 90.5317 33.8519C91.8066 33.8519 92.8406 34.8916 92.8406 36.1738ZM83.6039 31.6553C83.6039 32.9372 82.5705 33.9775 81.2945 33.9775C80.0191 33.9775 78.9856 32.9372 78.9856 31.6553C78.9856 30.3723 80.0191 29.3331 81.2945 29.3331C82.5705 29.3331 83.6039 30.3723 83.6039 31.6553ZM101.952 31.6553C101.952 32.9372 100.918 33.9775 99.6436 33.9775C98.3676 33.9775 97.3341 32.9372 97.3341 31.6553C97.3341 30.3723 98.3676 29.3331 99.6436 29.3331C100.918 29.3331 101.952 30.3723 101.952 31.6553ZM73.7432 34.0408C73.7432 34.9058 73.0452 35.6093 72.1838 35.6093C71.3212 35.6093 70.6227 34.9058 70.6227 34.0408C70.6227 33.1735 71.3212 32.4712 72.1838 32.4712C73.0452 32.4712 73.7432 33.1735 73.7432 34.0408ZM110.44 34.0408C110.44 34.9058 109.741 35.6093 108.88 35.6093C108.018 35.6093 107.32 34.9058 107.32 34.0408C107.32 33.1735 108.018 32.4712 108.88 32.4712C109.741 32.4712 110.44 33.1735 110.44 34.0408ZM92.0917 43.3278C92.0917 44.1945 91.3925 44.898 90.532 44.898C89.671 44.898 88.9712 44.1945 88.9712 43.3278C88.9712 42.4616 89.671 41.7599 90.532 41.7599C91.3925 41.7599 92.0917 42.4616 92.0917 43.3278ZM82.855 38.6852C82.855 39.5516 82.1566 40.2536 81.2953 40.2536C80.4335 40.2536 79.7345 39.5516 79.7345 38.6852C79.7345 37.8181 80.4335 37.1155 81.2953 37.1155C82.1566 37.1155 82.855 37.8181 82.855 38.6852ZM101.204 38.6852C101.204 39.5516 100.504 40.2536 99.6442 40.2536C98.7819 40.2536 98.0831 39.5516 98.0831 38.6852C98.0831 37.8181 98.7819 37.1155 99.6442 37.1155C100.504 37.1155 101.204 37.8181 101.204 38.6852ZM72.9942 39.5624C72.9942 40.0138 72.6312 40.3791 72.1832 40.3791C71.7346 40.3791 71.3716 40.0138 71.3716 39.5624C71.3716 39.1121 71.7346 38.7473 72.1832 38.7473C72.6312 38.7473 72.9942 39.1121 72.9942 39.5624ZM109.691 39.5624C109.691 40.0138 109.327 40.3791 108.88 40.3791C108.431 40.3791 108.069 40.0138 108.069 39.5624C108.069 39.1121 108.431 38.7473 108.88 38.7473C109.327 38.7473 109.691 39.1121 109.691 39.5624ZM91.3428 48.8514C91.3428 49.3021 90.9789 49.6678 90.5317 49.6678C90.0834 49.6678 89.7201 49.3021 89.7201 48.8514C89.7201 48.4007 90.0834 48.036 90.5317 48.036C90.9789 48.036 91.3428 48.4007 91.3428 48.8514ZM82.1061 44.2076C82.1061 44.6577 81.7425 45.0235 81.2945 45.0235C80.847 45.0235 80.4834 44.6577 80.4834 44.2076C80.4834 43.7563 80.847 43.3917 81.2945 43.3917C81.7425 43.3917 82.1061 43.7563 82.1061 44.2076ZM100.455 44.2076C100.455 44.6577 100.091 45.0235 99.6436 45.0235C99.1941 45.0235 98.832 44.6577 98.832 44.2076C98.832 43.7563 99.1941 43.3917 99.6436 43.3917C100.091 43.3917 100.455 43.7563 100.455 44.2076ZM93.5895 9.12397C93.5895 10.8575 92.1922 12.262 90.4699 12.262C88.7459 12.262 87.3485 10.8575 87.3485 9.12397C87.3485 7.39094 88.7459 5.98584 90.4699 5.98584C92.1922 5.98584 93.5895 7.39094 93.5895 9.12397ZM93.5895 18.4126C93.5895 20.1459 92.1922 21.5507 90.4699 21.5507C88.7459 21.5507 87.3485 20.1459 87.3485 18.4126C87.3485 16.6799 88.7459 15.2745 90.4699 15.2745C92.1922 15.2745 93.5895 16.6799 93.5895 18.4126ZM93.5895 27.5764C93.5895 29.3088 92.1922 30.7139 90.4699 30.7139C88.7459 30.7139 87.3485 29.3088 87.3485 27.5764C87.3485 25.8428 88.7459 24.4377 90.4699 24.4377C92.1922 24.4377 93.5895 25.8428 93.5895 27.5764ZM111.938 18.4126C111.938 20.1459 110.541 21.5507 108.818 21.5507C107.094 21.5507 105.697 20.1459 105.697 18.4126C105.697 16.6799 107.094 15.2745 108.818 15.2745C110.541 15.2745 111.938 16.6799 111.938 18.4126ZM75.241 18.4126C75.241 20.1459 73.8442 21.5507 72.1208 21.5507C70.3973 21.5507 69 20.1459 69 18.4126C69 16.6799 70.3973 15.2745 72.1208 15.2745C73.8442 15.2745 75.241 16.6799 75.241 18.4126ZM84.4777 13.7683C84.4777 15.5013 83.0808 16.9063 81.3572 16.9063C79.6336 16.9063 78.2367 15.5013 78.2367 13.7683C78.2367 12.0341 79.6336 10.6302 81.3572 10.6302C83.0808 10.6302 84.4777 12.0341 84.4777 13.7683ZM84.4777 22.9312C84.4777 24.6643 83.0808 26.0695 81.3572 26.0695C79.6336 26.0695 78.2367 24.6643 78.2367 22.9312C78.2367 21.1986 79.6336 19.7934 81.3572 19.7934C83.0808 19.7934 84.4777 21.1986 84.4777 22.9312ZM102.826 13.7683C102.826 15.5013 101.429 16.9063 99.7054 16.9063C97.982 16.9063 96.5852 15.5013 96.5852 13.7683C96.5852 12.0341 97.982 10.6302 99.7054 10.6302C101.429 10.6302 102.826 12.0341 102.826 13.7683ZM102.826 22.9312C102.826 24.6643 101.429 26.0695 99.7054 26.0695C97.982 26.0695 96.5852 24.6643 96.5852 22.9312C96.5852 21.1986 97.982 19.7934 99.7054 19.7934C101.429 19.7934 102.826 21.1986 102.826 22.9312Z" fill="#141414"/>
</svg>
