<svg width="51" height="50" viewBox="0 0 51 50" fill="none" xmlns="http://www.w3.org/2000/svg">
<g clip-path="url(#clip0_38_3223)">
<path fill-rule="evenodd" clip-rule="evenodd" d="M49.4035 26.1171C49.4035 13.2402 38.948 2.80225 26.0484 2.80225C13.149 2.80225 2.6916 13.2402 2.6916 26.1171C2.6916 35.9632 8.80645 44.3843 17.4504 47.8022L23.3589 32.8991C20.6542 31.8298 18.7404 29.1971 18.7404 26.1171C18.7404 22.0887 22.0127 18.8231 26.0482 18.8231C30.0839 18.8231 33.3561 22.0887 33.3561 26.1171C33.3561 29.1971 31.4404 31.83 28.7376 32.8991L34.6445 47.8022C43.2903 44.3843 49.4035 35.9632 49.4035 26.1171Z" stroke="#282846" stroke-width="2.5"/>
</g>
<defs>
<clipPath id="clip0_38_3223">
<rect width="50" height="49" fill="white" transform="translate(0.666641 0.776245)"/>
</clipPath>
</defs>
</svg>
