<svg width="180" height="71" viewBox="0 0 180 71" fill="none" xmlns="http://www.w3.org/2000/svg">
<path d="M73.4758 27.6182C73.4758 18.2409 66.1979 10.6391 57.2202 10.6391C48.2424 10.6391 40.9645 18.2409 40.9645 27.6182C40.9645 36.9956 48.2424 44.5974 57.2202 44.5974C66.1979 44.5974 73.4758 36.9956 73.4758 27.6182Z" fill="url(#paint0_linear_610_6973)"/>
<path d="M40.282 43.0736C40.282 52.451 47.5599 60.0528 56.5376 60.0528C65.5153 60.0528 72.7932 52.451 72.7932 43.0736C72.7932 33.6963 65.5153 26.0945 56.5376 26.0945C47.5599 26.0945 40.282 33.6963 40.282 43.0736Z" fill="url(#paint1_linear_610_6973)"/>
<path d="M96.6043 50.3005C92.141 50.3005 88.5145 49.2624 85.6452 47.6255L88.1559 39.9996H88.3549C89.7499 45.5892 94.0935 48.4639 98.1184 48.4639C100.39 48.4639 102.064 47.1463 102.064 45.0303C102.064 43.7526 101.546 42.555 99.2344 41.5169L92.6189 38.4823C88.7138 36.646 86.6813 33.3719 86.6813 29.8585C86.6813 25.5064 89.4312 20.7552 97.4013 20.7552C100.988 20.7552 105.132 21.913 107.483 23.2308L104.614 29.7785H104.415C102.821 24.8677 99.2742 22.5121 95.8073 22.5121C92.8982 22.5121 91.862 23.9895 91.862 25.3067C91.862 26.6246 92.5393 27.8621 94.6514 28.9002L101.466 32.1341C105.85 34.1704 107.165 36.6856 107.165 40.1594C107.165 45.8288 102.941 50.3005 96.6043 50.3005ZM120.499 44.1517C122.491 44.1517 123.965 43.5529 125.042 42.0356L125.36 42.1157C124.285 48.2642 120.14 50.1008 116.952 50.1008C112.369 50.1008 107.866 46.4276 107.866 39.4407C107.866 32.7332 111.811 27.9422 117.231 27.9422C120.618 27.9422 125.44 29.7386 125.44 37.3246H113.963C114.561 41.8362 116.952 44.152 120.498 44.152L120.499 44.1517ZM116.354 29.2594C114.72 29.2594 113.804 31.3755 113.804 34.9689C113.804 35.368 113.804 35.7276 113.844 36.0868H118.785C118.785 30.8166 117.948 29.2594 116.354 29.2594ZM140.488 44.0719L140.846 44.1919C139.97 47.1463 137.579 50.1008 133.434 50.1008C129.648 50.1008 127.975 47.6654 127.975 44.3514V29.6588H126.022V29.4594C129.091 26.824 132.358 24.3886 135.506 21.6338H135.546V28.6207H139.213V29.6189H135.546V43.2737C135.546 44.9904 136.304 46.1082 137.698 46.1082C139.252 46.1082 140.129 45.0701 140.488 44.0719Z" fill="#0F0835"/>
<defs>
<linearGradient id="paint0_linear_610_6973" x1="40.9645" y1="27.6182" x2="73.4758" y2="27.6182" gradientUnits="userSpaceOnUse">
<stop stop-color="#E6AE31"/>
<stop offset="1" stop-color="#E6AE31" stop-opacity="0"/>
</linearGradient>
<linearGradient id="paint1_linear_610_6973" x1="72.7932" y1="43.0737" x2="40.282" y2="43.0737" gradientUnits="userSpaceOnUse">
<stop stop-color="#E6AE31"/>
<stop offset="1" stop-color="#E6AE31" stop-opacity="0"/>
</linearGradient>
</defs>
</svg>
