<svg width="180" height="71" viewBox="0 0 180 71" fill="none" xmlns="http://www.w3.org/2000/svg">
<path fill-rule="evenodd" clip-rule="evenodd" d="M102.2 10.8585L78.5 60.8585H76.7L100.4 10.8585H102.2ZM105.3 27.3585C105.3 25.9585 105.8 24.8585 106.9 23.9585C108 23.0585 109.4 22.6585 111.1 22.6585C112.2 22.6585 113.3 22.7585 114.3 23.0585C115.4 23.2585 116.6 23.7585 118 24.4585L117.1 25.8585C115.8 25.2585 114.7 24.7585 113.8 24.4585C112.9 24.2585 112 24.0585 111 24.0585C109.7 24.0585 108.8 24.3585 108.1 24.9585C107.4 25.6585 107 26.3585 107 27.3585C107 28.2585 107.3 29.0585 107.9 29.7585C108.5 30.3585 109.9 31.3585 112 32.5585C113.9 33.6585 115.3 34.6585 116.1 35.3585C117 36.1585 117.6 37.0585 118 37.9585C118.4 38.8585 118.6 40.0585 118.6 41.3585C118.6 43.9585 117.9 46.0585 116.4 47.5585C115 49.0585 113 49.8585 110.4 49.8585C107.9 49.8585 105.9 49.1585 104.4 47.7585C102.9 46.3585 102.2 44.4585 102.2 42.1585C102.2 39.9585 102.8 38.1585 104.1 36.7585C105.3 35.3585 107.3 34.2585 110 33.5585C108.2 32.5585 106.9 31.5585 106.2 30.6585C105.6 29.5585 105.3 28.5585 105.3 27.3585ZM124.9 24.4585L131.7 35.1585L138.6 24.4585H140.5L132.7 36.3585L141.1 49.3585H139.1L131.6 37.8585L124 49.4585H122.1L130.5 36.4585L122.9 24.4585H124.9ZM107.8 35.5585C106.9 35.9585 106.2 36.5585 105.7 37.1585C105.2 37.7585 104.8 38.4585 104.5 39.2585C104.2 40.0585 104.1 40.9585 104.1 42.0585C104.1 43.9585 104.7 45.4585 105.9 46.6585C107.1 47.7585 108.6 48.3585 110.6 48.3585C112.6 48.3585 114.2 47.7585 115.3 46.5585C116.4 45.3585 117 43.6585 117 41.3585C117 39.8585 116.6 38.5585 115.8 37.4585C115 36.3585 113.6 35.3585 111.7 34.3585C109.9 34.7585 108.6 35.1585 107.8 35.5585ZM50.9 23.0585C52 23.2585 53.2 23.7585 54.6 24.4585L53.8 25.8585C52.5 25.2585 51.4 24.7585 50.5 24.4585C49.6 24.2585 48.7 24.0585 47.7 24.0585C46.4 24.0585 45.5 24.3585 44.8 24.9585C44.1 25.5585 43.7 26.3585 43.7 27.2585C43.7 28.1585 44 28.9585 44.6 29.6585C45.2 30.2585 46.6 31.2585 48.7 32.4585C50.6 33.5585 52 34.5585 52.8 35.2585C53.7 36.0585 54.3 36.9585 54.7 37.8585C55.1 38.7585 55.3 39.9585 55.3 41.2585C55.3 43.8585 54.6 45.9585 53.1 47.4585C51.7 48.9585 49.7 49.6585 47.1 49.6585C44.6 49.6585 42.6 48.9585 41.1 47.5585C39.6 46.1585 38.9 44.2585 38.9 41.9585C38.9 39.7585 39.5 37.9585 40.8 36.5585C42 35.1585 44 34.0585 46.7 33.3585C44.9 32.3585 43.6 31.3585 42.9 30.4585C42.2 29.5585 41.8 28.4585 41.8 27.3585C41.8 25.9585 42.3 24.8585 43.4 23.9585C44.5 23.0585 45.9 22.6585 47.6 22.6585C48.9 22.6585 49.9 22.7585 50.9 23.0585ZM44.5 35.5585C43.6 35.9585 42.9 36.5585 42.4 37.1585C41.9 37.7585 41.5 38.4585 41.2 39.2585C40.9 40.0585 40.8 40.9585 40.8 42.0585C40.8 43.9585 41.4 45.4585 42.6 46.6585C43.8 47.7585 45.3 48.3585 47.3 48.3585C49.3 48.3585 50.9 47.7585 52 46.5585C53.1 45.3585 53.7 43.6585 53.7 41.3585C53.7 39.8585 53.3 38.5585 52.5 37.4585C51.7 36.3585 50.3 35.3585 48.4 34.3585C46.6 34.7585 45.3 35.1585 44.5 35.5585ZM77.5 24.4585L69.2 39.7585V49.4585H67.4V39.9585L59 24.4585H61L68.3 38.1585L75.6 24.4585H77.5Z" fill="#231F20"/>
</svg>
