<svg width="43" height="46" viewBox="0 0 43 46" fill="none" xmlns="http://www.w3.org/2000/svg">
<path d="M25.7053 23.8117C25.5501 23.9769 25.3949 24.1317 25.2191 24.2762C25.0743 24.3795 24.9606 24.5033 24.8571 24.6271L24.5468 24.9058L24.5882 25.0297V25.2258C24.5675 25.4426 24.5675 25.5664 24.5779 25.7006V27.0012C24.5779 27.5792 24.5779 28.1675 24.5675 28.7559C24.5571 29.0966 24.5054 29.4268 24.4124 29.7674C24.3917 29.8396 24.3607 29.9223 24.3297 30.0151C24.2159 30.3041 24.0919 30.5415 23.9573 30.748C23.9056 30.8099 23.8539 30.8821 23.7918 30.9441C23.5642 31.2228 23.347 31.419 23.1092 31.5737C22.7679 31.7802 22.4783 31.9041 22.137 32.0072L21.9095 32.0589C21.7337 32.1001 21.5269 32.1001 21.382 32.1001C21.1442 32.1001 20.9373 32.1001 20.6995 32.0485L20.5754 32.0175C20.1928 31.904 19.8928 31.7801 19.6342 31.6149L19.5205 31.5427C19.3239 31.4189 19.1069 31.2227 18.8896 30.975C18.8172 30.8821 18.7551 30.8098 18.7138 30.7376C18.5689 30.5415 18.4552 30.3041 18.3518 30.0358C18.3104 29.9223 18.269 29.8396 18.2484 29.7467C18.1553 29.4165 18.1036 29.0861 18.1036 28.7456C18.0932 28.1675 18.0932 27.5792 18.0932 27.0012V25.7728C18.1036 25.5663 18.1036 25.4322 18.0932 25.3083L18.0415 24.8335L17.8139 24.6271C17.7105 24.5032 17.5968 24.3794 17.4519 24.2658C17.2761 24.1316 17.1209 23.9768 16.9762 23.822L16.8831 23.7188C15.7351 22.2841 15.3318 20.5293 15.7765 18.7849C15.8489 18.496 15.942 18.2173 16.0454 17.9489L16.0971 17.8354C16.3247 17.3194 16.6349 16.8445 16.9969 16.4214L17.0693 16.3388C17.1624 16.2253 17.3382 16.0704 17.514 15.9157L17.6899 15.7608C17.8554 15.6163 18.0106 15.5131 18.176 15.3995C18.2691 15.3375 18.3312 15.2963 18.4036 15.255C20.2369 14.2102 22.4449 14.1486 24.2679 15.255C24.3402 15.2963 24.3919 15.3375 24.454 15.3788C24.6506 15.5027 24.816 15.6162 24.9609 15.7401L25.1264 15.8845C25.3332 16.0703 25.4988 16.2252 25.6539 16.4006L25.7262 16.4831C26.0365 16.8444 26.3365 17.3192 26.5639 17.825L26.6157 17.9488C26.7295 18.2172 26.8226 18.4959 26.8949 18.7849C27.329 20.5293 26.9361 22.2841 25.788 23.7188L25.7053 23.8117Z" fill="#282846"/>
<path d="M39.0893 6.70793C38.6086 6.66801 38.1478 6.60795 37.6669 6.56812C36.5451 6.44818 35.4835 6.34811 34.4619 6.16829C30.5957 5.44866 27.0299 3.90922 23.5644 1.4902C22.3224 0.59056 20.82 0.530591 19.4579 1.37026L19.0772 1.63019C18.1557 2.20993 17.2743 2.7697 16.3929 3.2295C12.7069 5.2085 8.5804 6.34802 3.83276 6.68797C0.747764 6.92785 0.407219 9.30686 0.407219 10.2665C0.387128 10.9062 0.387128 11.546 0.407219 12.1857V13.1052C0.44731 16.2239 0.727674 19.0228 1.22849 21.6617C2.15004 26.2598 3.6524 30.1582 5.85595 33.5967C9.10113 38.6747 13.7887 42.673 19.8184 45.4718C20.2791 45.6718 20.7999 45.7717 21.3409 45.7717C22.0019 45.7717 22.6429 45.6118 23.1236 45.3319C30.0748 41.3735 35.1829 35.9359 38.3481 29.1386C40.8722 23.6809 42.1541 17.4833 42.2745 10.1665C42.2744 8.58713 41.2528 6.90789 39.0893 6.70793ZM36.5468 28.152C33.3741 34.9376 28.3099 39.9956 21.7961 43.6798C21.5859 43.8047 21.2287 43.8047 21.0186 43.7007C15.5133 41.1821 10.9325 37.5395 7.67561 32.4607C5.40618 28.943 4.01947 25.0923 3.19996 21.0334C2.67463 18.2651 2.44358 15.4551 2.40143 12.6451C2.40143 11.7085 2.38055 10.7509 2.40143 9.79356C2.40143 9.06499 2.50661 8.98177 3.24202 8.94011C8.30603 8.56548 13.1179 7.37896 17.6146 5.00611C18.7703 4.38172 19.8839 3.65324 21.0186 2.94545C21.3759 2.71648 21.649 2.71648 22.0062 2.96633C25.8305 5.63068 30.012 7.48306 34.6137 8.3366C36.2947 8.62792 37.9967 8.75289 39.6778 8.9402C40.119 8.98186 40.3922 9.10674 40.3922 9.62712C40.2871 16.0379 39.2786 22.2823 36.5468 28.152Z" fill="#282846"/>
</svg>
